<?xml version="1.0" encoding="iso-8859-1"?>
<!-- Generator: Adobe Illustrator 16.0.0, SVG Export Plug-In . SVG Version: 6.00 Build 0)  -->
<!DOCTYPE svg PUBLIC "-//W3C//DTD SVG 1.1//EN" "http://www.w3.org/Graphics/SVG/1.1/DTD/svg11.dtd">
<svg version="1.1" id="Capa_1" xmlns="http://www.w3.org/2000/svg" xmlns:xlink="http://www.w3.org/1999/xlink" x="0px" y="0px"
	 width="456.828px" height="456.828px" viewBox="0 0 456.828 456.828" style="enable-background:new 0 0 456.828 456.828;"
	 xml:space="preserve">
<g>
	<g>
		<path d="M451.383,247.54c-3.606-3.617-7.898-5.427-12.847-5.427h-63.953v-83.939l49.396-49.394
			c3.614-3.615,5.428-7.898,5.428-12.85c0-4.947-1.813-9.229-5.428-12.847c-3.614-3.616-7.898-5.424-12.847-5.424
			s-9.233,1.809-12.847,5.424l-49.396,49.394H107.923L58.529,83.083c-3.617-3.616-7.898-5.424-12.847-5.424
			c-4.952,0-9.233,1.809-12.85,5.424c-3.617,3.617-5.424,7.9-5.424,12.847c0,4.952,1.807,9.235,5.424,12.85l49.394,49.394v83.939
			H18.273c-4.949,0-9.231,1.81-12.847,5.427C1.809,251.154,0,255.442,0,260.387c0,4.949,1.809,9.237,5.426,12.848
			c3.616,3.617,7.898,5.431,12.847,5.431h63.953c0,30.447,5.522,56.53,16.56,78.224l-57.67,64.809
			c-3.237,3.81-4.712,8.234-4.425,13.275c0.284,5.037,2.235,9.273,5.852,12.703c3.617,3.045,7.707,4.571,12.275,4.571
			c5.33,0,9.897-1.991,13.706-5.995l52.246-59.102l4.285,4.004c2.664,2.479,6.801,5.564,12.419,9.274
			c5.617,3.71,11.897,7.423,18.842,11.143c6.95,3.71,15.23,6.852,24.84,9.418c9.614,2.573,19.273,3.86,28.98,3.86V169.034h36.547
			V424.85c9.134,0,18.363-1.239,27.688-3.717c9.328-2.471,17.135-5.232,23.418-8.278c6.275-3.049,12.47-6.519,18.555-10.42
			c6.092-3.901,10.089-6.612,11.991-8.138c1.909-1.526,3.333-2.762,4.284-3.71l56.534,56.243c3.433,3.617,7.707,5.424,12.847,5.424
			c5.141,0,9.422-1.807,12.854-5.424c3.607-3.617,5.421-7.902,5.421-12.851s-1.813-9.232-5.421-12.847l-59.388-59.669
			c12.755-22.651,19.13-50.251,19.13-82.796h63.953c4.949,0,9.236-1.81,12.847-5.427c3.614-3.614,5.432-7.898,5.432-12.847
			C456.828,255.445,455.011,251.158,451.383,247.54z"/>
		<path d="M293.081,31.27c-17.795-17.795-39.352-26.696-64.667-26.696c-25.319,0-46.87,8.901-64.668,26.696
			c-17.795,17.797-26.691,39.353-26.691,64.667h182.716C319.771,70.627,310.876,49.067,293.081,31.27z"/>
	</g>
</g>
<g>
</g>
<g>
</g>
<g>
</g>
<g>
</g>
<g>
</g>
<g>
</g>
<g>
</g>
<g>
</g>
<g>
</g>
<g>
</g>
<g>
</g>
<g>
</g>
<g>
</g>
<g>
</g>
<g>
</g>
</svg>
