<?xml version="1.0" encoding="UTF-8"?>
<svg width="128px" height="33px" viewBox="0 0 128 33" version="1.1" xmlns="http://www.w3.org/2000/svg" xmlns:xlink="http://www.w3.org/1999/xlink">
    <!-- Generator: Sketch 50.2 (55047) - http://www.bohemiancoding.com/sketch -->
    <title>logo</title>
    <desc>Created with Sketch.</desc>
    <defs>
        <path d="M0.386,10.7295 L0.386,1.7205 C0.386,1.011 0.947,0.45 1.6565,0.45 L4.8905,0.45 C8.5205,0.45 11.0285,2.9415 11.0285,6.192 L11.0285,6.225 C11.0285,9.4755 8.5205,12 4.8905,12 L1.6565,12 C0.947,12 0.386,11.439 0.386,10.7295 Z M2.927,9.7065 L4.8905,9.7065 C6.9695,9.7065 8.372,8.304 8.372,6.258 L8.372,6.225 C8.372,4.179 6.9695,2.7435 4.8905,2.7435 L2.927,2.7435 L2.927,9.7065 Z M14.5595,12 C13.85,12 13.289,11.439 13.289,10.7295 L13.289,1.7205 C13.289,1.011 13.85,0.45 14.5595,0.45 L20.9615,0.45 C21.5885,0.45 22.1,0.9615 22.1,1.5885 C22.1,2.2155 21.5885,2.7105 20.9615,2.7105 L15.8135,2.7105 L15.8135,5.0535 L20.219,5.0535 C20.846,5.0535 21.3575,5.565 21.3575,6.192 C21.3575,6.819 20.846,7.314 20.219,7.314 L15.8135,7.314 L15.8135,9.7395 L21.044,9.7395 C21.671,9.7395 22.1825,10.251 22.1825,10.878 C22.1825,11.505 21.671,12 21.044,12 L14.5595,12 Z M28.865,12.1815 C28.172,12.1815 27.6935,11.802 27.4295,11.175 L23.684,2.2155 C23.6015,2.0175 23.5355,1.8195 23.5355,1.605 C23.5355,0.8955 24.0965,0.351 24.806,0.351 C25.466,0.351 25.895,0.7305 26.093,1.242 L28.9805,8.7165 L31.901,1.1595 C32.066,0.747 32.5115,0.351 33.122,0.351 C33.815,0.351 34.376,0.879 34.376,1.572 C34.376,1.77 34.31,1.9845 34.244,2.133 L30.4655,11.175 C30.2015,11.802 29.723,12.1815 29.03,12.1815 L28.865,12.1815 Z M36.323,10.7295 L36.323,1.7205 C36.323,1.011 36.884,0.45 37.5935,0.45 L40.8275,0.45 C44.4575,0.45 46.9655,2.9415 46.9655,6.192 L46.9655,6.225 C46.9655,9.4755 44.4575,12 40.8275,12 L37.5935,12 C36.884,12 36.323,11.439 36.323,10.7295 Z M38.864,9.7065 L40.8275,9.7065 C42.9065,9.7065 44.309,8.304 44.309,6.258 L44.309,6.225 C44.309,4.179 42.9065,2.7435 40.8275,2.7435 L38.864,2.7435 L38.864,9.7065 Z M54.836,12.198 C51.272,12.198 48.7145,9.5415 48.7145,6.258 L48.7145,6.225 C48.7145,2.9415 51.305,0.252 54.869,0.252 C58.433,0.252 60.9905,2.9085 60.9905,6.192 L60.9905,6.225 C60.9905,9.5085 58.4,12.198 54.836,12.198 Z M54.869,9.855 C56.915,9.855 58.334,8.238 58.334,6.258 L58.334,6.225 C58.334,4.245 56.882,2.595 54.836,2.595 C52.79,2.595 51.371,4.212 51.371,6.192 L51.371,6.225 C51.371,8.205 52.823,9.855 54.869,9.855 Z M65.3795,12.165 C64.0595,12.165 63.053,11.7195 62.327,11.1585 C62.063,10.9605 61.8485,10.581 61.8485,10.185 C61.8485,9.5085 62.3765,8.964 63.053,8.964 C63.3665,8.964 63.5645,9.0465 63.812,9.228 C64.3235,9.6075 64.769,9.8055 65.3465,9.8055 C66.3365,9.8055 66.9305,9.228 66.9305,7.8915 L66.9305,1.6215 C66.9305,0.912 67.4915,0.351 68.201,0.351 C68.9105,0.351 69.4715,0.912 69.4715,1.6215 L69.4715,8.007 C69.4715,9.3765 69.0755,10.3995 68.3825,11.0925 C67.673,11.802 66.6335,12.165 65.3795,12.165 Z M80.312,12.198 C76.748,12.198 74.1905,9.5415 74.1905,6.258 L74.1905,6.225 C74.1905,2.9415 76.781,0.252 80.345,0.252 C83.909,0.252 86.4665,2.9085 86.4665,6.192 L86.4665,6.225 C86.4665,9.5085 83.876,12.198 80.312,12.198 Z M80.345,9.855 C82.391,9.855 83.81,8.238 83.81,6.258 L83.81,6.225 C83.81,4.245 82.358,2.595 80.312,2.595 C78.266,2.595 76.847,4.212 76.847,6.192 L76.847,6.225 C76.847,8.205 78.299,9.855 80.345,9.855 Z" id="path-1"></path>
        <linearGradient x1="26.7179961%" y1="25.92751%" x2="108.373894%" y2="84.2999996%" id="linearGradient-2">
            <stop stop-color="#FFFFFF" offset="0%"></stop>
            <stop stop-color="#EEEEEE" offset="100%"></stop>
        </linearGradient>
        <linearGradient x1="77.9998882%" y1="77.4447694%" x2="-8.43812117%" y2="15.6537426%" id="linearGradient-3">
            <stop stop-color="#FFFFFF" offset="0%"></stop>
            <stop stop-color="#EEEEEE" offset="100%"></stop>
        </linearGradient>
        <linearGradient x1="88.2423203%" y1="8.76444648%" x2="-4.81235569%" y2="78.6508196%" id="linearGradient-4">
            <stop stop-color="#FFFFFF" offset="0%"></stop>
            <stop stop-color="#D1D1D1" offset="100%"></stop>
        </linearGradient>
        <linearGradient x1="13.7735853%" y1="89.7083917%" x2="104.925982%" y2="21.2506777%" id="linearGradient-5">
            <stop stop-color="#FFFFFF" offset="0%"></stop>
            <stop stop-color="#D1D1D1" offset="100%"></stop>
        </linearGradient>
    </defs>
    <g id="Page-1" stroke="none" stroke-width="1" fill="none" fill-rule="evenodd">
        <g id="logo">
            <g id="DEVDOJO" transform="translate(41.000000, 11.000000)">
                <g id="DEVDOJ">
                    <use fill="#000000" xlink:href="#path-1"></use>
                    <use fill="#111119" xlink:href="#path-1"></use>
                </g>
            </g>
            <g fill-rule="nonzero">
                <path d="M31.8543567,7.40331429 C31.0495241,4.34264447 28.6584389,1.95151575 25.5957848,1.14462857 C22.779805,0.406371429 19.7109154,0 16.5004718,0 C13.3315508,0 10.3022963,0.396 7.51651463,1.11634286 C4.37639667,1.9271215 1.92510906,4.37840469 1.1163888,7.51645714 C0.396351054,10.3016571 0,13.332 0,16.5 C0,19.7113714 0.405787984,22.7794286 1.14564328,25.5948 C1.95034718,28.6560745 4.34189938,31.0476699 7.40515885,31.8544286 C10.220195,32.5936286 13.2890846,33 16.5004718,33 C19.7109154,33 22.779805,32.5936286 25.5957848,31.8544286 C28.6586809,31.0473751 31.0498193,28.6558329 31.8543567,25.5948 C32.594212,22.7794286 33,19.7113714 33,16.5 C33,13.2895714 32.594212,10.2205714 31.8543567,7.4052" id="Shape" fill="#FC0D1C"></path>
                <g id="code" transform="translate(6.500000, 9.500000)">
                    <g id="code-copy">
                        <g id="XMLID_84_" fill="url(#linearGradient-2)">
                            <path d="M4.8375,1.27272727 L5.325,0.776363636 C5.675,0.483636364 6.05,0.241818182 6.45,0.0763636364 C7.1125,-0.0763636364 7.85,0.101818182 8.375,0.636363636 C8.775,1.04363636 8.975,1.57818182 8.975,2.12545455 C8.975,2.67272727 8.775,3.19454545 8.375,3.61454545 L5.04392378,6.99348392 C5.05421579,7.00418247 5.06457453,7.01483952 5.075,7.02545455 C5.15,7.10181818 5.2375,7.19090909 5.325,7.25454545 L8.375,10.36 C9.175,11.1872727 9.175,12.5109091 8.375,13.3381818 C7.975,13.7454545 7.45,13.9490909 6.9125,13.9490909 C6.3875,13.9490909 5.8625,13.7454545 5.45,13.3381818 L0.675,8.47636364 C-0.125,7.66181818 -0.125,6.32545455 0.675,5.51090909 L4.8375,1.27272727 Z" id="Combined-Shape"></path>
                        </g>
                        <g id="XMLID_80_" transform="translate(11.000000, 0.000000)" fill="url(#linearGradient-3)">
                            <path d="M4.91662026,11.3202707 C4.74870623,11.8139678 4.48873629,12.2835277 4.1375,12.7018182 L3.65,13.1981818 C3.3,13.4909091 2.925,13.7327273 2.525,13.8981818 C1.8625,14.0509091 1.125,13.8727273 0.6,13.3381818 C0.2,12.9309091 5.68278063e-14,12.3963636 5.68278063e-14,11.8490909 C5.68278063e-14,11.3145455 0.2,10.78 0.6,10.36 L3.93739622,6.97465072 C3.9291402,6.96610406 3.92084146,6.95758403 3.9125,6.94909091 C3.8375,6.87272727 3.75,6.78363636 3.6625,6.72 L0.6125,3.61454545 C-0.1875,2.78727273 -0.1875,1.45090909 0.6125,0.636363636 C1.0125,0.229090909 1.5375,0.0254545455 2.075,0.0254545455 C2.6125,0.0254545455 3.125,0.229090909 3.5375,0.636363636 L8.3125,5.49818182 C9.1125,6.31272727 9.1125,7.64909091 8.3125,8.46363636 L4.15,12.7018182 C4.49716395,12.2846528 4.75276931,11.8148999 4.91662026,11.3202707 Z" id="Combined-Shape"></path>
                        </g>
                    </g>
                    <g id="XMLID_84_">
                        <path d="M8.375,13.3381818 C7.975,13.7454545 7.45,13.9490909 6.9125,13.9490909 C6.3875,13.9490909 5.8625,13.7454545 5.45,13.3381818 L0.675,8.47636364 C-0.125,7.66181818 -0.125,6.32545455 0.675,5.51090909 L4.8375,1.27272727 C3.45,2.94 3.525,5.44727273 5.075,7.02545455 C5.15,7.10181818 5.2375,7.19090909 5.325,7.25454545 L8.375,10.36 C9.175,11.1872727 9.175,12.5109091 8.375,13.3381818 Z" id="XMLID_88_" fill="url(#linearGradient-2)"></path>
                        <path d="M4.8375,1.27272727 L5.325,0.776363636 C5.675,0.483636364 6.05,0.241818182 6.45,0.0763636364 C7.1125,-0.0763636364 7.85,0.101818182 8.375,0.636363636 C8.775,1.04363636 8.975,1.57818182 8.975,2.12545455 C8.975,2.67272727 8.775,3.19454545 8.375,3.61454545 L5.0375,7 C3.4875,5.42181818 3.4375,2.94 4.8375,1.27272727 Z" id="XMLID_87_" fill="url(#linearGradient-4)"></path>
                        <path d="M5.08108974,1.00722611 C5.17083333,0.917482517 5.24775641,0.840559441 5.3375,0.763636364 L4.8375,1.26363636 C4.91442308,1.18671329 4.99134615,1.0969697 5.08108974,1.00722611 Z" id="XMLID_86_" fill="#0D1026"></path>
                    </g>
                    <g id="XMLID_80_" transform="translate(11.000000, 0.000000)">
                        <path d="M0.6125,0.636363636 C1.0125,0.229090909 1.5375,0.0254545455 2.075,0.0254545455 C2.6125,0.0254545455 3.125,0.229090909 3.5375,0.636363636 L8.3125,5.49818182 C9.1125,6.31272727 9.1125,7.64909091 8.3125,8.46363636 L4.15,12.7018182 C5.5375,11.0345455 5.4625,8.52727273 3.9125,6.94909091 C3.8375,6.87272727 3.75,6.78363636 3.6625,6.72 L0.6125,3.61454545 C-0.1875,2.78727273 -0.1875,1.45090909 0.6125,0.636363636 Z" id="XMLID_83_" fill="url(#linearGradient-3)"></path>
                        <path d="M4.1375,12.7018182 L3.65,13.1981818 C3.3,13.4909091 2.925,13.7327273 2.525,13.8981818 C1.8625,14.0509091 1.125,13.8727273 0.6,13.3381818 C0.2,12.9309091 5.68434189e-14,12.3963636 5.68434189e-14,11.8490909 C5.68434189e-14,11.3145455 0.2,10.78 0.6,10.36 L3.9375,6.97454545 C5.4875,8.55272727 5.5375,11.0345455 4.1375,12.7018182 Z" id="XMLID_82_" fill="url(#linearGradient-5)"></path>
                        <path d="M3.91891026,12.9582284 C3.82916667,13.047972 3.75224359,13.1248951 3.6625,13.2018182 L4.1625,12.7018182 C4.08557692,12.7915618 4.00865385,12.8813054 3.91891026,12.9582284 Z" id="XMLID_81_" fill="#0D1026"></path>
                    </g>
                </g>
            </g>
        </g>
    </g>
</svg>