<svg xmlns="http://www.w3.org/2000/svg" viewBox="0 0 299.48 181.05">
  <defs>
    <style>
      .cls-1 {
        fill: #435466;
      }

      .cls-2 {
        fill: #4dba87;
      }
    </style>
  </defs>
  <title>Asset 4</title>
  <g id="Layer_2" data-name="Layer 2">
    <g id="Layer_1-2" data-name="Layer 1">
      <g>
        <g>
          <path class="cls-1" d="M28.35,177.69A3.36,3.36,0,0,1,25.08,180H16.61a3.19,3.19,0,0,1-3.19-2.32L0,140.88H10.22l8.15,25.8c.64,2.24,1.36,4.55,1.92,6.79h1c.72-2.24,1.36-4.55,2.08-6.79l8.07-25.8h10.3Z"/>
          <path class="cls-1" d="M83.46,180H75.79l-.72-5.27C69.48,179,64.29,181,58.7,181c-7.11,0-10.86-3.67-10.86-10.86V140.88h9.74v26.44c-.08,4.15,1.12,5.51,4.79,5.51,3.35,0,6.55-1.44,11.42-4.23V140.88h9.66Z"/>
          <path class="cls-1" d="M127.38,172.1l.88,6.23c-4.15,2-11.18,2.63-16.13,2.63-14.22,0-19.57-5.75-19.57-20.6,0-15.49,5.67-20.61,18.93-20.61,12.7,0,17.81,4.71,17.81,13.58,0,7-3.19,11.18-10.46,11.18h-16c.8,7.11,3.75,8.55,10.46,8.55A134.18,134.18,0,0,0,127.38,172.1Zm-24.76-14.38h13.5c3.12,0,3.51-2.48,3.51-4.55,0-4.15-1.76-5.75-7.75-5.75C105.1,147.43,102.94,149.5,102.62,157.73Z"/>
          <path class="cls-1" d="M167.47,142.08l-.8,3.27a79.09,79.09,0,0,0-10.3-.64c-10.06,0-13.66,3.59-13.66,16s3.59,15.89,13.66,15.89a69.74,69.74,0,0,0,11.26-.88l.56,3.51A46.31,46.31,0,0,1,155.57,181c-13.26,0-18.13-5.35-18.13-20.29s4.87-20.37,18.13-20.37A38.07,38.07,0,0,1,167.47,142.08Z"/>
          <path class="cls-1" d="M211,160.68c0,14.85-4.71,20.29-17.73,20.29s-17.81-5.43-17.81-20.29,4.79-20.37,17.81-20.37S211,145.83,211,160.68Zm-30.19,0c0,12.22,3.12,16,12.46,16s12.46-3.75,12.46-16-3.11-16-12.46-16S180.81,148.46,180.81,160.68Z"/>
          <path class="cls-1" d="M254.44,180h-3.91L250,174.1c-4.71,4-9.82,6.87-15.57,6.87-10,0-13.82-6.47-13.82-20.37,0-14.93,4.47-20.29,14.46-20.29a32.59,32.59,0,0,1,14.62,3.75,59,59,0,0,1-.32-7.59V124.11h5Zm-18.53-3.51c4.55,0,7.83-1.84,13.5-6.07V147.59c-5.19-1.76-8.87-2.8-13.26-2.8-7.43,0-10.22,3.59-10.22,15.73S228.73,176.5,235.91,176.5Z"/>
          <path class="cls-1" d="M298,175.62l.56,3.43C295.33,180.33,288.38,181,284,181c-12.94,0-18-5.59-18-20.45,0-15.09,5-20.21,17.33-20.21,11.1,0,16.05,4.07,16.13,12.06.08,6.95-2.56,10.78-8.86,10.78H271.37c.56,10.54,4.47,13.42,13.34,13.42A110,110,0,0,0,298,175.62Zm-26.75-16.45h18.13c4,0,5-2.87,5-6.71-.08-5.43-3.27-7.75-10.78-7.75C274.64,144.71,271.53,148.22,271.29,159.17Z"/>
        </g>
        <path class="cls-2" d="M206.41.14l76.37,47.11a4.74,4.74,0,0,1,0,8l-76.34,46a1,1,0,0,1-1.44-.87V63.58a1,1,0,0,1,.46-.85l19-12.23-19-11.45a1,1,0,0,1-.48-.87V1A1,1,0,0,1,206.41.14Z"/>
        <path class="cls-1" d="M195,16.74l51.43,29.62a4.86,4.86,0,0,1,0,8.42L195,84.67V63.95l22.45-13.82L195,37.18"/>
        <path class="cls-2" d="M90.51.14,14.14,47.25a4.74,4.74,0,0,0,0,8l76.34,46a1,1,0,0,0,1.44-.87V63.58a1,1,0,0,0-.46-.85l-19-12.23,19-11.45a1,1,0,0,0,.48-.87V1A1,1,0,0,0,90.51.14Z"/>
        <path class="cls-1" d="M102,16.74,50.53,46.37a4.86,4.86,0,0,0,0,8.42L102,84.67V63.95L79.51,50.13l22.45-13"/>
        <rect class="cls-1" x="142.29" y="-2.87" width="12.33" height="113.19" rx="6.16" ry="6.16" transform="translate(46.75 -67.03) rotate(30)"/>
      </g>
    </g>
  </g>
</svg>
